<?xml version="1.0" standalone="no"?>

<svg version="1.0" xmlns="http://www.w3.org/2000/svg"
 width="250px" height="250px"   viewBox="0 0 500.000000 500.000000"
 preserveAspectRatio="xMidYMid meet">

<g transform="translate(0.000000,500.000000) scale(0.100000,-0.100000)"
fill="#000000" stroke="none">
<path d="M2452 4160 c-42 -10 -72 -37 -72 -64 0 -18 -11 -24 -72 -40 -184 -47
-370 -187 -436 -326 -58 -124 -71 -258 -46 -476 6 -48 5 -52 -18 -57 -38 -10
-76 -45 -100 -90 -18 -36 -20 -53 -15 -137 5 -104 23 -161 73 -233 18 -24 45
-50 62 -58 23 -10 33 -24 47 -68 10 -31 33 -87 52 -126 128 -256 317 -385 565
-385 148 0 258 35 368 119 104 79 210 237 256 384 13 42 25 62 44 72 119 62
188 313 121 444 -22 42 -71 81 -102 81 -14 0 -16 10 -12 68 3 37 10 75 14 84
13 24 11 80 -6 185 -19 115 -38 173 -81 240 -84 132 -255 245 -429 284 -30 7
-55 17 -54 23 4 32 -4 47 -29 60 -38 20 -90 26 -130 16z m319 -350 c36 -20 49
-63 49 -164 0 -92 -1 -97 -29 -128 l-29 -33 -234 -3 c-262 -4 -290 -1 -324 33
-23 23 -24 31 -24 137 1 116 6 133 45 156 26 15 518 17 546 2z m-150 -586 c76
-23 143 -58 224 -120 97 -72 113 -75 166 -27 l42 38 -7 -97 c-10 -139 19 -129
69 23 24 72 28 77 48 70 38 -13 59 -68 53 -137 -10 -117 -63 -212 -127 -227
-21 -6 -28 -16 -43 -69 -25 -92 -98 -234 -153 -301 -56 -67 -137 -127 -213
-158 -68 -26 -211 -36 -291 -20 -194 40 -346 199 -429 446 -29 87 -32 91 -73
110 -62 29 -99 108 -105 221 -4 82 -4 83 27 115 18 18 36 28 40 23 5 -5 16
-34 26 -64 23 -70 53 -130 65 -130 6 0 10 43 10 104 l0 103 45 -44 c55 -56 67
-54 179 26 45 33 100 68 124 80 100 50 225 64 323 35z"/>
<path d="M3231 2443 c-108 -120 -131 -197 -90 -305 44 -117 40 -136 -104 -453
-69 -154 -137 -293 -150 -310 -13 -16 -63 -52 -111 -79 -155 -86 -182 -159
-125 -333 20 -62 68 -118 93 -110 6 2 19 41 28 88 27 126 27 126 44 143 40 41
196 -4 210 -60 4 -15 -2 -68 -13 -120 -11 -51 -18 -96 -15 -99 3 -3 16 -5 28
-5 28 0 127 107 167 181 33 63 36 127 6 201 -42 106 -37 130 102 443 140 314
153 333 276 398 79 41 115 77 133 133 32 97 -45 314 -107 302 -13 -2 -22 -27
-38 -105 -25 -126 -41 -147 -105 -141 -57 6 -117 34 -137 65 -14 21 -14 31 1
106 9 45 19 92 22 105 6 19 3 22 -24 22 -25 0 -41 -12 -91 -67z"/>
<path d="M1935 2000 c-342 -117 -498 -213 -555 -344 -29 -63 -55 -211 -75
-425 -15 -146 -15 -175 -4 -182 25 -17 177 -60 276 -79 220 -42 539 -70 804
-70 l166 0 -11 35 c-10 33 -13 35 -56 35 -187 0 -556 26 -732 51 l-78 11 0 38
c0 23 13 62 34 103 53 101 70 196 62 347 -3 70 -13 165 -21 211 -8 46 -15 89
-15 95 0 14 160 78 170 68 12 -13 36 -106 59 -224 18 -96 30 -181 47 -347 l6
-61 101 -6 c56 -3 174 -8 262 -11 l160 -5 28 45 c30 47 78 85 162 128 28 13
57 33 66 43 20 23 254 543 247 549 -3 3 -36 15 -75 26 l-71 21 -69 -71 c-100
-101 -173 -134 -308 -139 -83 -3 -110 0 -160 17 -79 28 -160 84 -204 143 -22
29 -44 47 -56 47 -11 0 -83 -22 -160 -49z"/>
<path d="M3500 1760 c-40 -74 -200 -446 -200 -463 0 -12 11 -53 25 -92 29 -82
31 -122 9 -194 -8 -29 -14 -55 -12 -57 7 -7 233 44 303 69 l70 24 -2 94 c-4
186 -47 457 -84 531 -21 42 -76 108 -90 108 -4 0 -13 -9 -19 -20z"/>
</g>
</svg>
