<?xml version="1.0" standalone="no"?>
<svg version="1.0" xmlns="http://www.w3.org/2000/svg"
 width="250px" height="250px"  viewBox="0 0 500.000000 500.000000"
 preserveAspectRatio="xMidYMid meet">

<g transform="translate(0.000000,500.000000) scale(0.100000,-0.100000)"
fill="#000000" stroke="none">
<path d="M3106 3631 c-48 -32 -55 -55 -56 -181 0 -92 3 -120 17 -140 45 -66
116 -70 168 -8 24 28 25 36 25 145 0 130 -11 162 -66 188 -41 19 -53 19 -88
-4z"/>
<path d="M3449 3633 c-50 -30 -59 -60 -59 -187 l0 -116 33 -36 c50 -55 123
-48 160 16 13 22 17 53 17 142 -1 123 -8 147 -56 179 -35 23 -61 24 -95 2z"/>
<path d="M3772 3616 l-37 -34 0 -130 c0 -123 1 -132 24 -156 50 -53 126 -50
161 7 17 27 20 50 20 152 0 132 -7 153 -60 180 -44 23 -67 18 -108 -19z"/>
<path d="M2900 3451 c-55 -17 -110 -52 -144 -92 -69 -82 -67 -40 -64 -990 l3
-854 27 -47 c36 -59 98 -113 156 -132 69 -24 1166 -24 1235 0 62 21 135 87
163 149 l24 50 0 856 0 855 -26 52 c-46 93 -151 162 -246 162 -28 0 -28 -1
-28 -60 l0 -60 44 0 c53 0 104 -32 129 -80 16 -33 17 -91 15 -882 -3 -837 -3
-847 -24 -874 -11 -15 -33 -37 -48 -48 -27 -21 -37 -21 -614 -21 -569 0 -588
1 -621 20 -19 11 -43 33 -55 48 -21 28 -21 30 -21 885 l0 857 23 33 c30 42 56
55 117 62 l50 5 0 55 0 55 -35 2 c-19 1 -46 -2 -60 -6z"/>
<path d="M3310 3400 c0 -47 3 -60 15 -60 12 0 15 13 15 60 0 47 -3 60 -15 60
-12 0 -15 -13 -15 -60z"/>
<path d="M3652 3403 c4 -81 28 -85 28 -4 0 48 -3 61 -15 61 -13 0 -15 -11 -13
-57z"/>
<path d="M3010 2815 l0 -185 185 0 185 0 0 185 0 185 -185 0 -185 0 0 -185z
m328 143 c8 -8 12 -58 12 -160 l0 -149 -157 3 -158 3 -3 158 -3 157 149 0
c102 0 152 -4 160 -12z"/>
<path d="M3240 2830 c-29 -44 -56 -80 -59 -80 -4 0 -20 14 -37 31 -36 38 -61
52 -69 39 -6 -9 94 -120 108 -120 8 0 129 185 129 197 -1 27 -26 3 -72 -67z"/>
<path d="M3500 2960 l0 -40 255 0 255 0 0 40 0 40 -255 0 -255 0 0 -40z"/>
<path d="M2465 2974 c-104 -13 -188 -29 -254 -51 -42 -13 -228 -101 -413 -194
-186 -93 -345 -169 -353 -169 -9 0 -57 37 -108 81 -170 151 -310 236 -434 265
-63 15 -67 14 -86 -4 -19 -20 -19 -20 0 -39 11 -11 41 -23 68 -26 64 -9 193
-73 279 -139 92 -69 186 -157 186 -173 0 -23 -60 -35 -200 -39 -74 -2 -143 -7
-154 -12 -10 -4 -26 -2 -36 4 -13 8 -29 5 -69 -14 -57 -28 -81 -63 -81 -119 0
-19 -4 -35 -9 -35 -5 0 -23 -21 -40 -47 l-31 -46 0 -151 c0 -125 4 -158 19
-191 36 -79 105 -125 188 -125 l49 0 10 68 c49 305 388 466 666 315 109 -59
204 -203 215 -323 l6 -60 353 0 354 0 0 334 0 333 -427 5 c-489 5 -488 5 -488
73 l0 40 281 141 c301 151 366 175 537 195 l97 12 0 49 0 48 -47 -1 c-27 -1
-61 -4 -78 -5z m-1407 -637 c2 -19 -6 -42 -22 -66 -63 -90 -233 -175 -252
-126 -19 48 62 147 160 195 75 38 110 37 114 -3z"/>
<path d="M3500 2785 l0 -25 255 0 255 0 0 25 0 25 -255 0 -255 0 0 -25z"/>
<path d="M3500 2660 c0 -19 7 -20 255 -20 248 0 255 1 255 20 0 19 -7 20 -255
20 -248 0 -255 -1 -255 -20z"/>
<path d="M2980 2490 l0 -40 255 0 255 0 0 40 0 40 -255 0 -255 0 0 -40z"/>
<path d="M3600 2345 l0 -185 183 2 182 3 3 183 2 182 -185 0 -185 0 0 -185z
m321 136 c16 -20 19 -42 19 -157 l0 -134 -160 0 -160 0 0 154 0 155 38 3 c20
2 84 3 141 3 96 -1 105 -3 122 -24z"/>
<path d="M2980 2315 l0 -25 255 0 255 0 0 25 0 25 -255 0 -255 0 0 -25z"/>
<path d="M2980 2190 c0 -19 7 -20 255 -20 248 0 255 1 255 20 0 19 -7 20 -255
20 -248 0 -255 -1 -255 -20z"/>
<path d="M3010 1885 l0 -185 185 0 185 0 0 185 0 185 -185 0 -185 0 0 -185z
m320 135 c18 -18 20 -33 20 -155 l0 -135 -155 0 -155 0 0 155 0 155 135 0
c122 0 137 -2 155 -20z"/>
<path d="M1360 2047 c-139 -39 -234 -162 -235 -302 0 -60 5 -80 33 -138 118
-238 441 -235 562 5 53 107 39 220 -40 324 -71 94 -210 142 -320 111z m170
-137 c108 -55 130 -213 41 -301 -120 -120 -320 -40 -321 128 0 28 5 64 11 80
14 37 57 82 94 99 46 20 129 17 175 -6z"/>
<path d="M3470 2020 l0 -40 255 0 255 0 0 40 0 40 -255 0 -255 0 0 -40z"/>
<path d="M3472 1848 c3 -21 4 -21 253 -21 249 0 250 0 253 21 l3 22 -256 0
-256 0 3 -22z"/>
<path d="M3472 1728 l3 -23 250 0 250 0 3 23 3 22 -256 0 -256 0 3 -22z"/>
</g>
</svg>
