<?xml version="1.0" standalone="no"?>
<svg version="1.0" xmlns="http://www.w3.org/2000/svg"
 width="250px" height="250px" viewBox="0 0 500.000000 500.000000"
 preserveAspectRatio="xMidYMid meet">

<g transform="translate(0.000000,500.000000) scale(0.100000,-0.100000)"
fill="#000000" stroke="none">
<path d="M3084 4086 c-159 -40 -275 -165 -305 -330 -32 -173 62 -350 229 -429
61 -29 75 -32 167 -32 92 0 106 3 167 32 88 41 160 113 201 201 28 60 32 76
32 157 0 50 -6 109 -13 132 -19 62 -87 158 -142 198 -93 68 -233 98 -336 71z"/>
<path d="M2119 3715 c-29 -15 -145 -176 -424 -585 -103 -151 -193 -281 -199
-288 -15 -16 -72 26 -488 350 -147 114 -269 208 -272 208 -3 0 -6 -513 -6
-1140 l0 -1140 336 0 336 0 63 -57 c79 -73 154 -118 258 -157 78 -28 90 -30
232 -30 144 0 153 1 231 31 137 52 259 139 335 240 23 32 47 63 51 68 5 6 57
12 116 15 l107 5 48 350 c26 193 46 366 43 385 -4 43 -154 374 -197 437 -42
61 -137 129 -215 153 -51 15 -321 66 -682 127 -18 3 -35 9 -37 13 -3 4 70 117
162 251 352 517 403 597 403 637 0 104 -113 175 -201 127z m-34 -1742 c105
-37 187 -113 238 -221 29 -61 32 -75 32 -167 0 -91 -3 -106 -31 -166 -41 -85
-118 -162 -203 -203 -60 -28 -75 -31 -167 -31 -96 0 -103 2 -176 38 -252 124
-309 439 -117 642 110 117 278 159 424 108z"/>
<path d="M3145 3165 c-696 -112 -802 -131 -827 -151 -81 -60 -79 -175 5 -238
38 -28 90 -26 484 20 173 20 316 34 318 32 3 -2 69 -189 147 -414 l141 -409
-27 -185 c-15 -102 -45 -306 -67 -455 -22 -151 -38 -291 -36 -318 15 -180 265
-241 369 -91 32 44 33 53 82 374 40 259 46 293 52 288 2 -3 26 -137 53 -299
28 -163 55 -309 61 -325 52 -136 247 -165 347 -51 45 51 56 98 43 188 -20 141
-142 895 -166 1026 -37 203 -237 780 -303 876 -41 60 -94 105 -161 136 -49 23
-69 26 -180 28 -102 2 -164 -4 -335 -32z"/>
</g>
</svg>
