<?xml version="1.0" standalone="no"?>
<svg version="1.0" xmlns="http://www.w3.org/2000/svg"
 width="250px" height="250px"  viewBox="0 0 500.000000 500.000000"
 preserveAspectRatio="xMidYMid meet">

<g transform="translate(0.000000,500.000000) scale(0.100000,-0.100000)"
fill="#000000" stroke="none">
<path d="M764 3299 c-18 -20 -19 -39 -19 -266 0 -235 1 -245 21 -262 11 -9
140 -61 287 -116 l267 -99 0 -417 c0 -406 1 -417 21 -443 l20 -26 857 0 c471
0 863 4 871 9 7 5 237 328 510 717 l497 709 108 5 c98 5 110 7 127 29 24 30
24 52 -2 85 l-20 26 -171 0 -171 0 -414 -255 c-228 -140 -418 -255 -423 -255
-6 0 -10 25 -10 55 0 42 -5 60 -20 75 -19 19 -33 20 -395 20 l-375 0 0 75 0
75 124 0 c123 0 125 0 145 26 18 22 21 41 21 114 0 73 -3 92 -21 114 l-20 26
-320 0 c-387 0 -359 11 -359 -140 0 -139 1 -140 165 -140 l125 0 0 -75 0 -75
-377 0 -378 0 -70 138 -70 137 -225 77 c-124 42 -239 77 -256 77 -19 1 -38 -7
-50 -20z m286 -197 l145 -48 62 -119 c53 -102 62 -128 63 -172 0 -29 -3 -53
-7 -53 -5 1 -100 36 -213 78 l-205 78 -3 142 c-1 78 1 142 5 142 5 0 74 -22
153 -48z"/>
<path d="M4148 2480 c-31 -69 -64 -151 -73 -183 -16 -55 -16 -62 0 -103 38
-101 170 -125 239 -43 54 64 42 135 -58 344 l-52 109 -56 -124z"/>
</g>
</svg>
