<?xml version="1.0" standalone="no"?>

<svg version="1.0" xmlns="http://www.w3.org/2000/svg"
width="250px" height="250px"  viewBox="0 0 500.000000 500.000000"
 preserveAspectRatio="xMidYMid meet">

<g transform="translate(0.000000,500.000000) scale(0.100000,-0.100000)"
fill="#000000" stroke="none">
<path d="M1947 4078 c-23 -31 -359 -514 -514 -740 l-73 -106 -198 -4 c-196 -3
-199 -3 -239 -30 -22 -14 -48 -43 -59 -65 -18 -37 -19 -76 -19 -1108 0 -1032
1 -1071 19 -1108 25 -51 81 -87 148 -95 29 -4 699 -6 1490 -4 l1436 3 40 26
c22 15 51 45 64 67 23 40 23 46 26 369 l3 327 -448 0 -448 1 -144 216 c-130
196 -142 219 -131 237 7 12 63 89 125 171 61 83 124 169 141 192 l29 42 435 3
435 3 0 310 c0 277 -2 313 -18 342 -44 81 -98 103 -259 103 -57 0 -108 4 -114
8 -6 4 -116 142 -244 307 -128 165 -237 304 -241 309 -4 5 -67 -26 -140 -68
l-133 -76 -40 37 c-22 21 -81 77 -131 124 -154 148 -189 179 -200 179 -11 0
-76 -64 -135 -135 -74 -88 -62 -90 -207 33 -218 183 -216 183 -256 130z m198
-218 c127 -84 123 -80 93 -104 -49 -41 -443 -380 -448 -386 -3 -3 -40 -36 -83
-73 -71 -61 -82 -67 -122 -67 -25 0 -45 4 -45 10 0 5 105 150 233 322 129 172
240 323 248 336 8 12 18 22 24 22 6 0 51 -27 100 -60z m484 -54 c89 -73 161
-141 161 -152 0 -5 -73 -48 -163 -97 -89 -48 -178 -96 -197 -107 -51 -28 -200
-109 -312 -168 -90 -49 -101 -52 -167 -52 -39 0 -71 4 -71 9 0 4 10 19 23 32
51 54 646 589 654 589 3 0 36 -24 72 -54z m583 -238 c188 -257 236 -326 231
-332 -9 -9 -1033 -7 -1033 2 0 9 39 34 145 96 44 26 87 51 95 56 8 5 83 48
165 96 83 48 186 109 230 135 44 27 83 49 86 49 3 0 39 -46 81 -102z"/>
<path d="M3145 2200 c-58 -77 -108 -146 -111 -153 -3 -8 15 -43 38 -78 74
-109 140 -203 156 -222 14 -16 47 -17 476 -15 l461 3 3 303 2 302 -459 0 -460
0 -106 -140z m373 12 c40 -18 88 -85 97 -135 4 -21 4 -58 0 -83 -15 -105 -155
-184 -252 -142 -74 32 -113 80 -127 160 -16 90 49 189 139 213 54 14 92 11
143 -13z"/>
</g>
</svg>
