<?xml version="1.0" standalone="no"?>

<svg version="1.0" xmlns="http://www.w3.org/2000/svg"
 width="250px" height="250px" viewBox="0 0 400.000000 350.000000"
 preserveAspectRatio="xMidYMid meet">

<g transform="translate(0.000000,500.000000) scale(0.100000,-0.100000)"
fill="#000000" stroke="none">
<path d="M1530 4930 c-304 -23 -459 -68 -554 -163 -115 -115 -267 -428 -322
-659 -9 -43 -21 -78 -25 -78 -4 0 -19 20 -32 43 -58 98 -153 156 -254 157
-120 0 -143 -28 -143 -180 0 -56 5 -110 11 -122 21 -38 68 -48 235 -48 l156 0
-67 -72 c-82 -89 -146 -196 -182 -303 -26 -76 -27 -89 -27 -275 1 -321 38
-562 107 -701 31 -60 38 -67 107 -99 12 -6 16 -35 20 -136 3 -71 9 -137 14
-147 18 -38 58 -47 216 -47 218 0 240 17 240 185 l0 85 58 -5 c279 -23 1016
-42 1170 -30 l92 8 0 39 c0 21 6 54 14 73 l15 34 -36 12 c-55 18 -119 88 -137
150 -18 59 -21 205 -6 259 19 69 64 126 123 155 l55 27 -15 36 c-23 54 -20
141 6 195 30 62 177 202 227 216 53 15 121 13 169 -4 49 -18 45 -18 45 -2 0
33 61 107 112 136 51 30 57 31 178 31 99 0 133 -4 165 -19 49 -22 109 -86 124
-134 l12 -35 45 20 c32 13 61 19 95 16 27 -1 49 -2 49 0 0 1 -15 33 -34 71
-37 72 -142 212 -176 233 -11 7 -20 16 -20 20 0 4 77 8 171 10 l171 3 29 33
c28 31 29 36 29 133 0 110 -13 148 -57 168 -35 16 -145 13 -188 -5 -49 -20
-127 -94 -161 -152 l-27 -45 -33 119 c-57 209 -130 373 -243 540 -104 156
-189 200 -467 240 -125 17 -874 28 -1054 14z m800 -215 c216 -12 446 -54 514
-93 60 -35 207 -357 266 -585 13 -48 21 -89 19 -91 -2 -2 -40 0 -84 5 -145 14
-405 29 -737 41 -352 12 -860 1 -1236 -27 -103 -8 -201 -15 -218 -15 l-32 0
15 53 c57 207 120 369 195 507 49 91 63 108 105 125 45 19 198 51 312 65 184
24 599 30 881 15z m-1308 -1162 c83 -45 127 -122 127 -223 2 -177 -184 -300
-347 -230 -101 43 -173 164 -158 262 29 182 219 278 378 191z"/>
<path d="M3007 3495 c-8 -7 -18 -36 -21 -62 -13 -95 -16 -103 -44 -109 -15 -4
-48 -17 -73 -30 l-45 -23 -64 45 c-35 24 -73 44 -83 44 -21 0 -147 -118 -147
-138 0 -6 20 -40 45 -76 46 -68 52 -85 35 -102 -5 -5 -18 -34 -28 -64 -19 -54
-19 -55 -68 -63 -27 -5 -65 -14 -84 -21 l-35 -12 -3 -95 c-3 -114 -2 -116 99
-133 62 -10 74 -16 82 -37 6 -13 20 -47 32 -75 l23 -51 -44 -64 c-24 -34 -44
-70 -44 -79 0 -22 121 -140 144 -140 10 0 47 20 82 44 l63 45 38 -20 c21 -10
54 -25 73 -33 35 -13 36 -16 48 -90 10 -55 18 -79 32 -86 10 -5 54 -10 98 -10
96 0 108 10 123 100 5 35 12 67 15 71 2 4 26 15 52 24 26 8 58 22 72 29 23 13
29 11 86 -30 34 -24 70 -44 81 -44 23 0 143 119 143 142 0 9 -20 43 -44 76
l-45 60 31 74 c17 40 32 75 34 77 1 1 35 9 75 17 39 7 78 19 85 25 10 8 14 37
14 99 0 82 -2 90 -25 108 -13 11 -48 22 -76 26 -61 8 -89 21 -89 41 0 8 -11
40 -25 70 l-24 56 44 61 c25 33 45 67 45 75 0 22 -120 143 -143 143 -11 0 -47
-20 -81 -44 -57 -41 -63 -43 -86 -30 -14 7 -47 21 -73 30 -53 18 -60 28 -72
109 -12 84 -13 85 -120 85 -68 0 -97 -4 -108 -15z m250 -386 c128 -61 210
-196 201 -337 -7 -125 -86 -245 -197 -299 -50 -25 -67 -28 -156 -28 -84 0
-107 4 -147 24 -75 37 -134 95 -170 169 -29 59 -33 76 -33 152 0 71 4 94 27
142 87 187 292 263 475 177z"/>
</g>
</svg>
