<?xml version="1.0" standalone="no"?>

<svg version="1.0" xmlns="http://www.w3.org/2000/svg"
 width="250px" height="250px"  viewBox="0 0 500.000000 500.000000"
 preserveAspectRatio="xMidYMid meet">

<g transform="translate(0.000000,500.000000) scale(0.100000,-0.100000)"
fill="#000000" stroke="none">
<path d="M770 3705 l0 -75 75 0 75 0 0 -991 0 -991 -125 -158 c-123 -156 -125
-159 -125 -209 l0 -51 235 0 234 0 3 58 3 57 1395 0 1395 0 3 -57 3 -58 234 0
235 0 0 51 c0 50 -2 53 -125 209 l-125 158 0 991 0 991 75 0 75 0 0 75 0 75
-195 0 -195 0 0 -740 0 -740 -55 0 -55 0 -1 -95 c-1 -52 -2 -101 -3 -107 -1
-9 18 -14 57 -16 l57 -3 -2 -217 -3 -217 -1375 0 -1375 0 -3 217 -2 217 55 3
c30 2 55 6 55 11 0 4 0 52 0 107 l0 100 -55 0 -55 0 0 740 0 740 -195 0 -195
0 0 -75z"/>
<path d="M1845 3591 c-75 -35 -111 -90 -145 -221 l-16 -65 -160 -5 c-87 -3
-165 -9 -171 -13 -17 -11 -18 -158 -1 -175 8 -8 46 -12 105 -12 55 0 93 -4 93
-10 0 -5 -4 -10 -9 -10 -21 0 -140 -123 -155 -161 -35 -88 -48 -231 -48 -523
1 -241 3 -281 17 -295 13 -13 50 -16 233 -19 280 -3 266 -9 270 126 l3 102
679 0 679 0 3 -102 c3 -98 4 -103 28 -115 37 -20 450 -14 474 6 16 14 17 40
13 345 -4 333 -10 394 -49 489 -11 27 -133 147 -149 147 -5 0 -9 5 -9 10 0 6
38 10 93 10 59 0 97 4 105 12 7 7 12 43 12 90 0 66 -3 79 -19 88 -11 5 -86 10
-171 10 -112 0 -152 3 -154 13 -48 159 -59 186 -87 221 -66 79 -32 76 -769 76
-616 0 -657 -2 -695 -19z m1312 -72 c38 -14 92 -67 109 -106 9 -20 14 -70 14
-133 l0 -100 -740 0 -740 0 0 99 c0 113 8 142 53 190 59 62 36 60 684 61 394
0 601 -4 620 -11z m-1382 -620 c70 -26 127 -80 123 -116 -2 -15 -16 -35 -31
-47 -24 -18 -43 -21 -121 -21 -84 0 -98 3 -160 34 -44 22 -74 44 -87 64 -22
38 -23 47 -6 70 36 50 172 57 282 16z m1782 7 c71 -36 45 -102 -61 -156 -64
-32 -75 -35 -161 -35 -79 0 -98 3 -122 21 -53 40 -38 93 40 138 92 55 233 69
304 32z"/>
</g>
</svg>
